<?xml version="1.0" encoding="UTF-8"?>
<svg width="150px" height="169px" viewBox="0 0 150 169" version="1.1" xmlns="http://www.w3.org/2000/svg" xmlns:xlink="http://www.w3.org/1999/xlink">
    <title>Personal</title>
    <g id="企业中心" stroke="none" stroke-width="1" fill="none" fill-rule="evenodd">
        <g id="Personal" fill="#4875F6" fill-rule="nonzero">
            <path d="M25,49.9999512 C25.0023702,25.9688338 42.1001448,5.33840575 65.7131047,0.874916423 C89.3260646,-3.58857291 112.774493,9.37752392 121.548343,31.7496979 C130.322192,54.121872 121.939486,79.5714043 101.5875,92.3499512 C130.730381,103.406317 150,131.330242 150,162.499951 C150,165.951731 147.20178,168.749951 143.75,168.749951 C140.29822,168.749951 137.5,165.951731 137.5,162.499951 C137.5,127.982154 109.517797,99.9999512 75,99.9999512 C40.4822031,99.9999512 12.5,127.982154 12.5,162.499951 C12.5,165.951731 9.70177969,168.749951 6.25,168.749951 C2.79822031,168.749951 0,165.951731 0,162.499951 C0,131.330242 19.2696188,103.406317 48.4125,92.3499512 C33.836611,83.2065171 24.991161,67.2063119 25,49.9999512 Z M75,87.4999512 C95.7106781,87.4999512 112.5,70.7106293 112.5,49.9999512 C112.5,29.2892731 95.7106781,12.4999512 75,12.4999512 C54.2893219,12.4999512 37.5,29.2892731 37.5,49.9999512 C37.5,70.7106293 54.2893219,87.4999512 75,87.4999512 Z" id="形状"></path>
        </g>
    </g>
</svg>